<?xml version="1.0" encoding="utf-8"?>
<!-- Generator: Adobe Illustrator 23.0.2, SVG Export Plug-In . SVG Version: 6.00 Build 0)  -->
<svg version="1.1" xmlns="http://www.w3.org/2000/svg" xmlns:xlink="http://www.w3.org/1999/xlink" x="0px" y="0px" width="500px"
	 height="500px" viewBox="0 0 500 500" enable-background="new 0 0 500 500" xml:space="preserve">
<g id="Layer_1" display="none">
	
		<image display="inline" overflow="visible" width="1419" height="1785" xlink:href="C:\Users\User\Desktop\head-bear-3.png"  transform="matrix(-0.2915 -0.1499 -0.1499 0.2915 691.5331 39.1208)">
	</image>
</g>
<g id="Layer_3" display="none">
	
		<image display="inline" overflow="visible" width="1419" height="1785" xlink:href="C:\Users\User\Desktop\head-bear-2.png"  transform="matrix(-0.281 -0.1554 -0.1554 0.281 686.4694 54.4404)">
	</image>
</g>
<g id="Layer_2">
	
		<polygon fill="#141F0F" stroke="#5B7734" stroke-width="0.15" stroke-linecap="round" stroke-linejoin="round" stroke-miterlimit="10" points="
		107.5,187.6 129.1,192.2 121.6,198.2 	"/>
	
		<polygon fill="#738265" stroke="#5B7734" stroke-width="0.15" stroke-linecap="round" stroke-linejoin="round" stroke-miterlimit="10" points="
		107.5,187.6 111.8,177.4 129.1,192.2 	"/>
	
		<polygon fill="#86A172" stroke="#5B7734" stroke-width="0.15" stroke-linecap="round" stroke-linejoin="round" stroke-miterlimit="10" points="
		111.8,177.4 104.9,170.5 101.5,183.9 	"/>
	
		<polygon fill="#7B9761" stroke="#5B7734" stroke-width="0.15" stroke-linecap="round" stroke-linejoin="round" stroke-miterlimit="10" points="
		111.8,177.4 107.5,187.6 101.5,183.9 	"/>
	
		<polygon fill="#B9C9A6" stroke="#5B7734" stroke-width="0.15" stroke-linecap="round" stroke-linejoin="round" stroke-miterlimit="10" points="
		104.9,170.5 111.8,177.4 155,148.1 	"/>
	
		<polygon fill="#B9C9AA" stroke="#5B7734" stroke-width="0.15" stroke-linecap="round" stroke-linejoin="round" stroke-miterlimit="10" points="
		111.8,177.4 129.1,192.2 155,148.1 	"/>
	
		<polygon fill="#203116" stroke="#5B7734" stroke-width="0.15" stroke-linecap="round" stroke-linejoin="round" stroke-miterlimit="10" points="
		107.5,187.6 99.6,195.1 121.6,198.2 	"/>
	
		<polygon fill="#203116" stroke="#5B7734" stroke-width="0.15" stroke-linecap="round" stroke-linejoin="round" stroke-miterlimit="10" points="
		129.1,192.2 143.9,196.8 121.6,198.2 	"/>
	
		<polygon fill="#4D7035" stroke="#5B7734" stroke-width="0.15" stroke-linecap="round" stroke-linejoin="round" stroke-miterlimit="10" points="
		121.7,198.2 119,214.1 99.6,195.1 	"/>
	
		<polygon fill="#597D3B" stroke="#5B7734" stroke-width="0.15" stroke-linecap="round" stroke-linejoin="round" stroke-miterlimit="10" points="
		121.6,198.2 119,214.1 143.9,196.8 	"/>
	
		<polygon fill="#A7BA95" stroke="#5B7734" stroke-width="0.15" stroke-linecap="round" stroke-linejoin="round" stroke-miterlimit="10" points="
		129.1,192.2 155,148.1 143.9,196.8 	"/>
	
		<polygon fill="#9EB48C" stroke="#5B7734" stroke-width="0.15" stroke-linecap="round" stroke-linejoin="round" stroke-miterlimit="10" points="
		101.5,183.9 107.5,187.6 99.6,195.1 	"/>
	
		<polygon fill="#91AB81" stroke="#5B7734" stroke-width="0.15" stroke-linecap="round" stroke-linejoin="round" stroke-miterlimit="10" points="
		101.5,183.9 66.8,196.8 99.6,195.1 	"/>
	
		<polygon fill="#5E823E" stroke="#5B7734" stroke-width="0.15" stroke-linecap="round" stroke-linejoin="round" stroke-miterlimit="10" points="
		119,214.1 119.9,282.9 185.5,220.8 	"/>
	
		<polygon fill="#9DB283" stroke="#5B7734" stroke-width="0.15" stroke-linecap="round" stroke-linejoin="round" stroke-miterlimit="10" points="
		143.9,196.8 185.5,220.8 119,214.1 	"/>
	
		<polygon fill="#85A984" stroke="#5B7734" stroke-width="0.15" stroke-linecap="round" stroke-linejoin="round" stroke-miterlimit="10" points="
		99.6,195.1 90.9,231.6 51.9,229.8 	"/>
	
		<polygon fill="#B9C9A6" stroke="#5B7734" stroke-width="0.15" stroke-linecap="round" stroke-linejoin="round" stroke-miterlimit="10" points="
		51.9,229.8 36.8,203.9 66.8,196.8 	"/>
	
		<polygon fill="#B0C199" stroke="#5B7734" stroke-width="0.15" stroke-linecap="round" stroke-linejoin="round" stroke-miterlimit="10" points="
		66.8,196.8 99.6,195.1 51.9,229.8 	"/>
	
		<polygon fill="#8FA87B" stroke="#5B7734" stroke-width="0.15" stroke-linecap="round" stroke-linejoin="round" stroke-miterlimit="10" points="
		99.6,195.1 90.9,231.6 119,214.1 	"/>
	
		<polygon fill="#5B7734" stroke="#5B7734" stroke-width="0.15" stroke-linecap="round" stroke-linejoin="round" stroke-miterlimit="10" points="
		119,214.1 119.9,282.9 90.9,231.6 	"/>
	
		<polygon fill="#ABBE9A" stroke="#5B7734" stroke-width="0.15" stroke-linecap="round" stroke-linejoin="round" stroke-miterlimit="10" points="
		155,148.1 143.9,196.8 185.5,220.8 	"/>
	
		<polygon fill="#496A2E" stroke="#5B7734" stroke-width="0.15" stroke-linecap="round" stroke-linejoin="round" stroke-miterlimit="10" points="
		119.9,282.9 186.6,341.2 185.5,220.8 	"/>
	
		<polygon fill="#6E8436" stroke="#5B7734" stroke-width="0.15" stroke-linecap="round" stroke-linejoin="round" stroke-miterlimit="10" points="
		186.6,341.2 256.6,251.4 185.5,220.8 	"/>
	
		<polygon fill="#939539" stroke="#5B7734" stroke-width="0.15" stroke-linecap="round" stroke-linejoin="round" stroke-miterlimit="10" points="
		248.1,202.5 256.6,251.4 185.5,220.8 	"/>
	
		<polygon fill="#779459" stroke="#5B7734" stroke-width="0.15" stroke-linecap="round" stroke-linejoin="round" stroke-miterlimit="10" points="
		119.9,282.9 148.8,369.1 186.6,341.2 	"/>
	
		<polygon fill="#1B2C16" stroke="#5B7734" stroke-width="0.15" stroke-linecap="round" stroke-linejoin="round" stroke-miterlimit="10" points="
		51.9,229.8 36.8,203.9 35.4,217.3 	"/>
	
		<polygon fill="#203017" stroke="#5B7734" stroke-width="0.15" stroke-linecap="round" stroke-linejoin="round" stroke-miterlimit="10" points="
		35.4,217.3 25.5,205.5 36.8,203.9 	"/>
	
		<polygon fill="#0D1308" stroke="#5B7734" stroke-width="0.15" stroke-linecap="round" stroke-linejoin="round" stroke-miterlimit="10" points="
		35.4,217.3 25.8,222.7 51.9,229.8 	"/>
	
		<polygon fill="#273B1D" stroke="#5B7734" stroke-width="0.15" stroke-linecap="round" stroke-linejoin="round" stroke-miterlimit="10" points="
		25.5,205.5 25.8,222.7 35.4,217.3 	"/>
	
		<polygon fill="#121E0D" stroke="#5B7734" stroke-width="0.15" stroke-linecap="round" stroke-linejoin="round" stroke-miterlimit="10" points="
		25.8,222.7 14.7,210.9 11.6,220.6 	"/>
	
		<polygon fill="#1A2813" stroke="#5B7734" stroke-width="0.15" stroke-linecap="round" stroke-linejoin="round" stroke-miterlimit="10" points="
		25.5,205.5 14.7,210.9 25.8,222.7 	"/>
	
		<polygon fill="#233719" stroke="#5B7734" stroke-width="0.15" stroke-linecap="round" stroke-linejoin="round" stroke-miterlimit="10" points="
		25.8,222.7 12.4,228.6 11.6,220.6 	"/>
	
		<polygon fill="#060804" stroke="#5B7734" stroke-width="0.15" stroke-linecap="round" stroke-linejoin="round" stroke-miterlimit="10" points="
		25.8,222.7 12.4,228.6 51.9,229.8 	"/>
	
		<polygon fill="#15200F" stroke="#5B7734" stroke-width="0.15" stroke-linecap="round" stroke-linejoin="round" stroke-miterlimit="10" points="
		12.4,228.6 17.1,239.9 51.9,229.8 	"/>
	
		<polygon fill="#27411E" stroke="#5B7734" stroke-width="0.15" stroke-linecap="round" stroke-linejoin="round" stroke-miterlimit="10" points="
		17.1,239.9 14.7,259.3 40.1,263.9 	"/>
	
		<polygon fill="#1D2E16" stroke="#5B7734" stroke-width="0.15" stroke-linecap="round" stroke-linejoin="round" stroke-miterlimit="10" points="
		17.1,239.9 40.1,263.9 51.9,229.8 	"/>
	
		<polygon fill="#22351A" stroke="#5B7734" stroke-width="0.15" stroke-linecap="round" stroke-linejoin="round" stroke-miterlimit="10" points="
		40.1,263.9 54,268.4 51.9,229.8 	"/>
	
		<polygon fill="#344A20" stroke="#5B7734" stroke-width="0.15" stroke-linecap="round" stroke-linejoin="round" stroke-miterlimit="10" points="
		40.1,263.9 40.1,276.8 49.1,282 	"/>
	
		<polygon fill="#5C5F22" stroke="#5B7734" stroke-width="0.15" stroke-linecap="round" stroke-linejoin="round" stroke-miterlimit="10" points="
		40.1,263.9 49.1,282 54,268.4 	"/>
	
		<polygon fill="#131C0D" stroke="#5B7734" stroke-width="0.15" stroke-linecap="round" stroke-linejoin="round" stroke-miterlimit="10" points="
		14.7,259.3 40.1,276.8 40.1,263.9 	"/>
	
		<polygon fill="#6D722E" stroke="#5B7734" stroke-width="0.15" stroke-linecap="round" stroke-linejoin="round" stroke-miterlimit="10" points="
		40.1,276.8 49.1,291.9 49.1,282 	"/>
	
		<polygon fill="#7B732B" stroke="#5B7734" stroke-width="0.15" stroke-linecap="round" stroke-linejoin="round" stroke-miterlimit="10" points="
		54,268.4 57.1,286.5 64.4,269.3 	"/>
	
		<polygon fill="#3B481F" stroke="#5B7734" stroke-width="0.15" stroke-linecap="round" stroke-linejoin="round" stroke-miterlimit="10" points="
		57.1,286.5 69.5,298.5 64.4,269.3 	"/>
	
		<polygon fill="#506028" stroke="#5B7734" stroke-width="0.15" stroke-linecap="round" stroke-linejoin="round" stroke-miterlimit="10" points="
		57.1,286.5 65.8,303.6 69.5,298.5 	"/>
	
		<polygon fill="#232C0F" stroke="#5B7734" stroke-width="0.15" stroke-linecap="round" stroke-linejoin="round" stroke-miterlimit="10" points="
		69.5,298.5 72.4,272.6 64.4,269.3 	"/>
	
		<polygon fill="#7B732B" stroke="#5B7734" stroke-width="0.15" stroke-linecap="round" stroke-linejoin="round" stroke-miterlimit="10" points="
		65.8,303.6 72.8,307.2 69.5,298.5 	"/>
	
		<polygon fill="#111509" stroke="#5B7734" stroke-width="0.15" stroke-linecap="round" stroke-linejoin="round" stroke-miterlimit="10" points="
		69.5,298.5 89.3,298.5 72.4,272.6 	"/>
	
		<polygon fill="#161A0C" stroke="#5B7734" stroke-width="0.15" stroke-linecap="round" stroke-linejoin="round" stroke-miterlimit="10" points="
		89.3,298.5 117.3,313.5 104.1,285.1 	"/>
	
		<polygon fill="#0D0F07" stroke="#5B7734" stroke-width="0.15" stroke-linecap="round" stroke-linejoin="round" stroke-miterlimit="10" points="
		89.3,298.5 72.4,272.6 104.1,285.1 	"/>
	
		<polygon fill="#161110" stroke="#5B7734" stroke-width="0.15" stroke-linecap="round" stroke-linejoin="round" stroke-miterlimit="10" points="
		49.1,282 57.1,286.5 54,268.4 	"/>
	
		<polygon fill="#2B3D1D" stroke="#5B7734" stroke-width="0.15" stroke-linecap="round" stroke-linejoin="round" stroke-miterlimit="10" points="
		117.3,313.5 119.9,282.9 104.1,285.1 	"/>
	
		<polygon fill="#1D2C15" stroke="#5B7734" stroke-width="0.15" stroke-linecap="round" stroke-linejoin="round" stroke-miterlimit="10" points="
		64.4,269.3 54,268.4 51.9,229.8 	"/>
	
		<polygon fill="#314F29" stroke="#5B7734" stroke-width="0.15" stroke-linecap="round" stroke-linejoin="round" stroke-miterlimit="10" points="
		64.4,269.3 90.9,231.6 72.4,272.6 	"/>
	
		<polygon fill="#334F27" stroke="#5B7734" stroke-width="0.15" stroke-linecap="round" stroke-linejoin="round" stroke-miterlimit="10" points="
		64.4,269.3 51.9,229.8 90.9,231.6 	"/>
	
		<polygon fill="#487037" stroke="#5B7734" stroke-width="0.15" stroke-linecap="round" stroke-linejoin="round" stroke-miterlimit="10" points="
		72.4,272.6 104.1,285.1 90.9,231.6 	"/>
	
		<polygon fill="#40602E" stroke="#5B7734" stroke-width="0.15" stroke-linecap="round" stroke-linejoin="round" stroke-miterlimit="10" points="
		104.1,285.1 119.9,282.9 90.9,231.6 	"/>
	
		<polygon fill="#D9E1C6" stroke="#5B7734" stroke-width="0.15" stroke-linecap="round" stroke-linejoin="round" stroke-miterlimit="10" points="
		278.7,156.4 305.1,131.2 316.1,140.1 	"/>
	
		<polygon fill="#CBCFAA" stroke="#5B7734" stroke-width="0.15" stroke-linecap="round" stroke-linejoin="round" stroke-miterlimit="10" points="
		305.1,131.2 329.3,133.8 316.1,140.1 	"/>
	
		<polygon fill="#D3DBB9" stroke="#5B7734" stroke-width="0.15" stroke-linecap="round" stroke-linejoin="round" stroke-miterlimit="10" points="
		316.1,140.1 328.4,155.4 329.3,133.8 	"/>
	
		<polygon fill="#E3E2C4" stroke="#5B7734" stroke-width="0.15" stroke-linecap="round" stroke-linejoin="round" stroke-miterlimit="10" points="
		328.4,155.4 337.5,155.4 329.3,133.8 	"/>
	
		<polygon fill="#B5BE8B" stroke="#5B7734" stroke-width="0.15" stroke-linecap="round" stroke-linejoin="round" stroke-miterlimit="10" points="
		328.4,155.4 318,183.6 331.6,174.9 	"/>
	
		<polygon fill="#CBCFAA" stroke="#5B7734" stroke-width="0.15" stroke-linecap="round" stroke-linejoin="round" stroke-miterlimit="10" points="
		328.4,155.4 331.6,174.9 337.5,155.4 	"/>
	
		<polygon fill="#738637" stroke="#5B7734" stroke-width="0.15" stroke-linecap="round" stroke-linejoin="round" stroke-miterlimit="10" points="
		316.1,140.1 292.6,176.6 278.7,156.4 	"/>
	
		<polygon fill="#496125" stroke="#5B7734" stroke-width="0.15" stroke-linecap="round" stroke-linejoin="round" stroke-miterlimit="10" points="
		328.4,155.4 292.6,176.6 316.1,140.1 	"/>
	
		<polygon fill="#3D4414" stroke="#5B7734" stroke-width="0.15" stroke-linecap="round" stroke-linejoin="round" stroke-miterlimit="10" points="
		328.4,155.4 302,182.7 318,183.6 	"/>
	
		<polygon fill="#363C12" stroke="#5B7734" stroke-width="0.15" stroke-linecap="round" stroke-linejoin="round" stroke-miterlimit="10" points="
		328.4,155.4 302,182.7 292.6,176.6 	"/>
	
		<polygon fill="#827324" stroke="#5B7734" stroke-width="0.15" stroke-linecap="round" stroke-linejoin="round" stroke-miterlimit="10" points="
		292.6,176.6 292.6,196.1 302,182.7 	"/>
	
		<polygon fill="#363C12" stroke="#5B7734" stroke-width="0.15" stroke-linecap="round" stroke-linejoin="round" stroke-miterlimit="10" points="
		292.6,196.1 318,183.6 302,182.7 	"/>
	
		<polygon fill="#8D9D51" stroke="#5B7734" stroke-width="0.15" stroke-linecap="round" stroke-linejoin="round" stroke-miterlimit="10" points="
		292.6,176.6 248.1,202.5 278.7,156.4 	"/>
	
		<polygon fill="#827E2D" stroke="#5B7734" stroke-width="0.15" stroke-linecap="round" stroke-linejoin="round" stroke-miterlimit="10" points="
		292.6,176.6 292.6,196.1 248.1,202.5 	"/>
	
		<polygon fill="#213118" stroke="#5B7734" stroke-width="0.15" stroke-linecap="round" stroke-linejoin="round" stroke-miterlimit="10" points="
		117.3,313.5 148.8,369.1 119.9,282.9 	"/>
	
		<polygon fill="#1A2310" stroke="#5B7734" stroke-width="0.15" stroke-linecap="round" stroke-linejoin="round" stroke-miterlimit="10" points="
		117.3,313.5 119.4,344.1 148.8,369.1 	"/>
	
		<polygon fill="#27371C" stroke="#5B7734" stroke-width="0.15" stroke-linecap="round" stroke-linejoin="round" stroke-miterlimit="10" points="
		119.4,344.1 110.2,366.2 148.8,369.1 	"/>
	
		<polygon fill="#37431A" stroke="#5B7734" stroke-width="0.15" stroke-linecap="round" stroke-linejoin="round" stroke-miterlimit="10" points="
		110.2,366.2 100.6,361.5 102.5,377.5 	"/>
	
		<polygon fill="#7F7B2B" stroke="#5B7734" stroke-width="0.15" stroke-linecap="round" stroke-linejoin="round" stroke-miterlimit="10" points="
		100.6,361.5 93.3,364.4 102.5,377.5 	"/>
	
		<polygon fill="#C1A14E" stroke="#5B7734" stroke-width="0.15" stroke-linecap="round" stroke-linejoin="round" stroke-miterlimit="10" points="
		100.6,361.5 91.9,353.3 93.3,364.4 	"/>
	
		<polygon fill="#1C2914" stroke="#5B7734" stroke-width="0.15" stroke-linecap="round" stroke-linejoin="round" stroke-miterlimit="10" points="
		110.2,366.2 102.5,377.5 148.8,369.1 	"/>
	
		<polygon fill="#213118" stroke="#5B7734" stroke-width="0.15" stroke-linecap="round" stroke-linejoin="round" stroke-miterlimit="10" points="
		102.5,377.5 102.7,402 148.8,369.1 	"/>
	
		<polygon fill="#B5B87D" stroke="#5B7734" stroke-width="0.15" stroke-linecap="round" stroke-linejoin="round" stroke-miterlimit="10" points="
		278.7,156.4 257.2,166.5 248.1,202.5 	"/>
	
		<polygon fill="#B5B87D" stroke="#5B7734" stroke-width="0.15" stroke-linecap="round" stroke-linejoin="round" stroke-miterlimit="10" points="
		257.2,166.5 155,148.1 185.5,220.8 	"/>
	
		<polygon fill="#B9C399" stroke="#5B7734" stroke-width="0.15" stroke-linecap="round" stroke-linejoin="round" stroke-miterlimit="10" points="
		249.1,123.4 155,148.1 257.2,166.5 	"/>
	
		<polygon fill="#A0963D" stroke="#5B7734" stroke-width="0.15" stroke-linecap="round" stroke-linejoin="round" stroke-miterlimit="10" points="
		257.2,166.5 248.1,202.5 185.5,220.8 	"/>
	
		<polygon fill="#A5B27E" stroke="#5B7734" stroke-width="0.15" stroke-linecap="round" stroke-linejoin="round" stroke-miterlimit="10" points="
		331.6,174.9 332,199.6 318,183.6 	"/>
	
		<polygon fill="#B5BE8B" stroke="#5B7734" stroke-width="0.15" stroke-linecap="round" stroke-linejoin="round" stroke-miterlimit="10" points="
		318,183.6 292.6,196.1 332,199.6 	"/>
	
		<polygon fill="#8C8F36" stroke="#5B7734" stroke-width="0.15" stroke-linecap="round" stroke-linejoin="round" stroke-miterlimit="10" points="
		292.6,196.1 256.6,251.4 248.1,202.5 	"/>
	
		<polygon fill="#404F19" stroke="#5B7734" stroke-width="0.15" stroke-linecap="round" stroke-linejoin="round" stroke-miterlimit="10" points="
		292.6,196.1 256.6,251.4 332,199.6 	"/>
	
		<polygon fill="#E2E1C3" stroke="#5B7734" stroke-width="0.15" stroke-linecap="round" stroke-linejoin="round" stroke-miterlimit="10" points="
		305.1,131.2 257.2,166.5 278.7,156.4 	"/>
	
		<polygon fill="#B0C199" stroke="#5B7734" stroke-width="0.15" stroke-linecap="round" stroke-linejoin="round" stroke-miterlimit="10" points="
		305.1,131.2 249.1,123.4 257.2,166.5 	"/>
	
		<polygon fill="#1A2310" stroke="#5B7734" stroke-width="0.15" stroke-linecap="round" stroke-linejoin="round" stroke-miterlimit="10" points="
		148.8,369.1 170,394.1 102.7,402 	"/>
	
		<polygon fill="#273A1C" stroke="#5B7734" stroke-width="0.15" stroke-linecap="round" stroke-linejoin="round" stroke-miterlimit="10" points="
		186.6,341.2 170,394.1 148.8,369.1 	"/>
	
		<polygon fill="#668842" stroke="#5B7734" stroke-width="0.15" stroke-linecap="round" stroke-linejoin="round" stroke-miterlimit="10" points="
		170,394.1 214.1,408.9 186.6,341.2 	"/>
	
		<polygon fill="#43622A" stroke="#5B7734" stroke-width="0.15" stroke-linecap="round" stroke-linejoin="round" stroke-miterlimit="10" points="
		186.6,341.2 294.9,378.2 214.1,408.9 	"/>
	
		<polygon fill="#4C6B2D" stroke="#5B7734" stroke-width="0.15" stroke-linecap="round" stroke-linejoin="round" stroke-miterlimit="10" points="
		256.6,251.4 294.9,378.2 186.6,341.2 	"/>
	
		<polygon fill="#6E8538" stroke="#5B7734" stroke-width="0.15" stroke-linecap="round" stroke-linejoin="round" stroke-miterlimit="10" points="
		332,199.6 407.6,298.5 256.6,251.4 	"/>
	
		<polygon fill="#527230" stroke="#5B7734" stroke-width="0.15" stroke-linecap="round" stroke-linejoin="round" stroke-miterlimit="10" points="
		256.6,251.4 294.9,378.2 407.6,298.5 	"/>
	
		<polygon fill="#35491D" stroke="#5B7734" stroke-width="0.15" stroke-linecap="round" stroke-linejoin="round" stroke-miterlimit="10" points="
		407.6,298.5 385.5,384.6 294.9,378.2 	"/>
	
		<polygon fill="#9D9D42" stroke="#5B7734" stroke-width="0.15" stroke-linecap="round" stroke-linejoin="round" stroke-miterlimit="10" points="
		331.6,174.9 381.3,182.7 337.5,155.4 	"/>
	
		<polygon fill="#B7BF7D" stroke="#5B7734" stroke-width="0.15" stroke-linecap="round" stroke-linejoin="round" stroke-miterlimit="10" points="
		331.6,174.9 331.2,199.9 381.3,182.7 	"/>
	
		<polygon fill="#859648" stroke="#5B7734" stroke-width="0.15" stroke-linecap="round" stroke-linejoin="round" stroke-miterlimit="10" points="
		381.3,182.7 407.6,298.5 331.2,199.9 	"/>
	
		<polygon fill="#B5B264" stroke="#5B7734" stroke-width="0.15" stroke-linecap="round" stroke-linejoin="round" stroke-miterlimit="10" points="
		329.3,133.8 426.6,87.4 381.3,182.7 	"/>
	
		<polygon fill="#B6BF83" stroke="#5B7734" stroke-width="0.15" stroke-linecap="round" stroke-linejoin="round" stroke-miterlimit="10" points="
		329.3,133.8 337.5,155.4 381.3,182.7 	"/>
	
		<polygon fill="#96A151" stroke="#5B7734" stroke-width="0.15" stroke-linecap="round" stroke-linejoin="round" stroke-miterlimit="10" points="
		426.6,87.4 407.6,298.5 381.3,182.7 	"/>
	
		<polygon fill="#2E3A12" stroke="#5B7734" stroke-width="0.15" stroke-linecap="round" stroke-linejoin="round" stroke-miterlimit="10" points="
		407.6,298.5 483.4,348.4 385.5,384.6 	"/>
	
		<polygon fill="#859648" stroke="#5B7734" stroke-width="0.15" stroke-linecap="round" stroke-linejoin="round" stroke-miterlimit="10" points="
		426.6,87.4 483.4,348.4 407.6,298.5 	"/>
	
		<polygon fill="#1A2310" stroke="#5B7734" stroke-width="0.15" stroke-linecap="round" stroke-linejoin="round" stroke-miterlimit="10" points="
		385.5,384.6 492.6,458.7 483.4,348.4 	"/>
	
		<polygon fill="#4C6B2D" stroke="#5B7734" stroke-width="0.15" stroke-linecap="round" stroke-linejoin="round" stroke-miterlimit="10" points="
		426.6,87.4 722.7,26.7 483.4,348.4 	"/>
	
		<polygon fill="#27371C" stroke="#5B7734" stroke-width="0.15" stroke-linecap="round" stroke-linejoin="round" stroke-miterlimit="10" points="
		492.6,458.7 696.6,350 483.4,348.4 	"/>
	
		<polygon fill="#1A2310" stroke="#5B7734" stroke-width="0.15" stroke-linecap="round" stroke-linejoin="round" stroke-miterlimit="10" points="
		492.6,458.7 546.9,558.2 696.6,350 	"/>
	
		<polygon fill="#43622A" stroke="#5B7734" stroke-width="0.15" stroke-linecap="round" stroke-linejoin="round" stroke-miterlimit="10" points="
		722.7,26.7 696.6,350 483.4,348.4 	"/>
</g>
</svg>
