<svg width="180" height="22" viewBox="0 0 180 22" fill="none" xmlns="http://www.w3.org/2000/svg">
<g clip-path="url(#clip0)">
<path d="M78.1735 21.4035H70.299C65.5109 21.4035 61.6151 17.5445 61.6151 12.8013V0.014698H66.3833V12.8013C66.3833 14.9401 68.1399 16.6801 70.299 16.6801H78.1735V21.4035Z" fill="#17BEFF"/>
<path d="M29.2079 21.4035H27.633C22.8449 21.4035 18.9491 17.5448 18.9491 12.8016V8.61664C18.9491 3.87357 22.8448 0.014698 27.633 0.014698H29.2079C33.996 0.014698 37.8915 3.87344 37.8915 8.61664V12.8016C37.8914 17.5448 33.996 21.4035 29.2079 21.4035ZM27.633 4.73782C25.4739 4.73782 23.7173 6.47787 23.7173 8.61638V12.8013C23.7173 14.9398 25.4739 16.6799 27.633 16.6799H29.2079C31.3667 16.6799 33.1233 14.9398 33.1233 12.8013V8.61638C33.1233 6.47787 31.3667 4.73782 29.2079 4.73782H27.633V4.73782Z" fill="#17BEFF"/>
<path d="M97.1205 5.49645C97.1205 2.42231 94.2376 0.0145645 90.5575 0.0145645H80.565V21.4036H85.3332V21.4039H90.5575C94.2376 21.4039 97.1205 18.9958 97.1205 15.922V13.8297C97.1205 12.6614 96.7033 11.5898 95.9849 10.7095C96.7033 9.82924 97.1205 8.75756 97.1205 7.58931V5.49671V5.49645ZM85.3332 4.73782H90.5575C91.7539 4.73782 92.3523 5.3516 92.3523 5.49632V7.58865C92.3523 7.7335 91.7539 8.34715 90.5575 8.34715H85.3332V4.73782V4.73782ZM92.3523 15.9216C92.3523 16.0665 91.7539 16.6801 90.5575 16.6801H85.3332V13.0707H90.5575C91.7539 13.0707 92.3523 13.6844 92.3523 13.8292V15.9216V15.9216Z" fill="#FF8F04"/>
<path d="M50.5404 21.4035H48.9654C44.1771 21.4035 40.2816 17.5448 40.2816 12.8016V8.61664C40.2816 3.87357 44.1769 0.014698 48.9654 0.014698H50.5404C55.3287 0.014698 59.2242 3.87344 59.2242 8.61664V12.8016C59.2242 17.5448 55.3287 21.4035 50.5404 21.4035ZM48.9654 4.73782C46.8063 4.73782 45.0498 6.47787 45.0498 8.61638V12.8013C45.0498 14.9398 46.8063 16.6799 48.9654 16.6799H50.5404C52.6994 16.6799 54.456 14.9398 54.456 12.8013V8.61638C54.456 6.47787 52.6994 4.73782 50.5404 4.73782H48.9654V4.73782Z" fill="#17BEFF"/>
<path d="M108.195 4.73782H116.069V0.0144348H108.195C106.786 0.0144348 105.456 0.350451 104.279 0.942318C101.453 2.36275 99.5108 5.26828 99.5108 8.61625V12.801C99.5108 16.1491 101.453 19.0545 104.279 20.4752C105.456 21.0672 106.786 21.4031 108.195 21.4031H116.069V16.6797H108.195C106.127 16.6797 104.43 15.0837 104.29 13.0703H111.299V8.34688H104.29C104.43 6.33367 106.127 4.73782 108.195 4.73782Z" fill="#FF8F04"/>
<path d="M135.02 0.0146972H120.45C120.447 0.0146972 120.444 0.0144348 120.44 0.0144348H118.461V4.73808H120.45C122.605 4.74346 124.356 6.48088 124.356 8.61638V21.4032H129.124V8.61638C129.124 7.22154 128.785 5.90437 128.188 4.73808H135.019V0.0146972H135.02Z" fill="#E11D00"/>
<path d="M16.5581 21.4035H8.68384C3.89536 21.4035 0 17.5445 0 12.8014V8.61661C0 3.87354 3.89536 0.0146675 8.68384 0.0146675H16.5581V4.73806H8.68384C6.52477 4.73806 4.76821 6.47784 4.76821 8.61661V12.8014C4.76821 14.9402 6.52477 16.6802 8.68384 16.6802H16.5581V21.4035V21.4035Z" fill="#70C62A"/>
<path d="M178.225 9.10013C177.713 8.90792 177.231 8.62189 176.78 8.24218C175.788 7.38994 174.539 7.04319 173.438 6.82451C171.555 6.41381 169.766 6.39185 168.016 5.46299C167.094 4.95209 166.069 4.30273 165.07 4.16682C164.553 4.09767 163.97 4.14399 163.32 4.30629C163.565 3.48222 160.1 5.578 160.887 5.21803C158.049 6.36907 155.412 6.12931 153.724 7.64166C151.784 9.14251 150.144 11.3025 150.144 11.3025C150.684 10.7979 151.356 10.4518 152.161 10.2639C153.054 10.059 154.131 10.1901 154.829 9.58625C155.522 9.11053 155.913 8.56336 156.555 8.09969C156.557 8.09707 156.559 8.09589 156.562 8.09589C157.488 7.51613 158.342 7.48008 158.873 8.381C159.086 9.39548 158.992 10.6335 158.592 12.095C158.59 12.1109 158.587 12.126 158.582 12.1399C158.224 13.438 157.816 14.4147 157.555 15.7983C157.465 16.5227 157.59 17.1033 157.663 17.8444C157.724 18.5799 157.378 19.2649 157.702 19.9673C158.108 20.6524 158.928 21.2663 159.631 21.3567C160.444 21.3702 163.969 21.6216 162.836 20.9747C162.546 20.4039 162.168 20.4044 161.662 20.6203C161.02 20.7253 160.379 20.6674 159.855 20.1966C159.637 19.197 159.842 18.0011 159.761 17.0176C159.658 15.8365 160.103 14.5524 161.097 13.165C161.731 12.2789 163.684 10.6177 163.082 9.684C162.529 8.7804 161.83 7.7394 162.17 6.68924C162.533 6.09679 163.148 5.66277 163.748 5.37259C164.807 4.86772 165.653 4.97307 166.284 5.68854C167.139 6.51607 168.095 6.75316 169.205 7.22101C170.476 7.89463 171.963 8.25449 173.252 8.381C174.329 8.50874 175.161 8.68045 176.173 8.93691C177.071 9.34172 177.96 9.70782 178.86 9.26965C178.659 9.23415 178.389 9.1586 178.225 9.10013V9.10013Z" fill="#17BEFF"/>
<path d="M143.311 8.46116C142.978 9.45168 143.067 10.3081 142.719 11.3166C142.552 11.7847 142.258 12.2988 141.835 12.8596C141.362 13.4846 140.915 13.9025 140.491 14.1135C140.132 14.299 139.759 14.5324 139.471 14.7424C138.586 15.3986 138.347 15.8632 138.202 16.1797C138.068 16.434 137.966 16.7414 137.686 16.9205C137.534 17.0176 137.44 17.2052 137.405 17.4835C137.485 18.1126 137.757 18.7109 138.043 19.2342C138.535 20.1257 139.058 20.7002 139.615 20.9575C139.894 21.0309 140.288 21.1275 140.526 20.9575C140.663 20.8822 140.755 20.8713 140.895 20.8531C139.871 18.816 140.103 17.3176 141.729 16.1909C144.287 14.6138 146.247 13.0007 147.61 11.3516C148.532 10.2374 149.21 9.04804 149.644 7.78349C150.422 5.49278 151.188 4.27952 154.053 3.94495C156.421 3.8741 158.442 4.26094 160.478 3.28131C161.593 2.73235 162.741 2.49054 163.922 2.55509C164.784 2.59918 165.531 2.78339 166.163 3.1076C167.047 3.45424 170.651 4.74989 171.03 4.34557C171.499 3.89138 171.977 4.52773 172.234 4.92453C172.35 5.06596 173.079 5.27891 174.418 5.56389L176.393 5.95291C176.629 5.71151 176.948 5.76715 177.143 5.93572C177.234 6.01642 177.307 6.10459 177.361 6.19945C177.649 6.2301 177.837 6.20637 178.129 6.17898L178.104 5.81042C177.877 5.36556 177.261 5.05681 176.842 4.87611C175.811 4.38668 174.719 3.96972 173.724 3.6252C173.619 3.58833 173.515 3.53008 173.412 3.45148C173.239 3.36594 172.88 3.26596 172.335 3.15273C171.461 2.96747 170.611 2.76371 169.786 2.54131C168.874 2.29347 168.256 2.09207 167.934 1.93711C167.253 1.62281 166.601 1.39249 165.911 1.22126C165.256 1.06158 164.819 0.980365 164.599 0.977741C164.348 0.977741 163.831 1.06027 163.045 1.22454C162.875 1.26167 162.266 1.22126 161.218 1.10304C160.267 0.998734 159.691 0.923422 159.492 0.877238C158.452 0.636922 157.534 0.368739 156.491 0.19274C155.156 -0.0341136 153.885 -0.0610107 152.679 0.112836C151.036 0.412942 149.51 1.05868 148.155 1.83267C146.272 2.91643 145.121 4.03981 144.7 5.20255C144.399 6.39513 143.677 7.3534 143.311 8.46116H143.311Z" fill="#E11D00"/>
<path d="M170.861 10.4656C170.703 9.94035 170.458 9.28895 171.037 9.09449C168.876 9.19956 165.897 6.78174 165.328 7.20789C165.253 7.51933 165.363 7.62051 166.207 8.48895C166.672 9.06964 167.835 9.16896 168.192 9.52062C166.616 9.71626 166.993 9.59979 166.091 10.5142C166.274 10.8946 166.538 11.275 166.775 11.5531C167.427 12.3127 168.249 12.8628 169.241 13.2032C170.717 14.4022 171.221 16.3321 172.207 17.9384C172.598 18.5869 172.996 19.109 173.374 19.3478C174.226 19.6352 175.325 19.051 176.03 19.6026C175.847 20.2285 173.581 19.6298 173.124 20.2452C173.379 20.604 173.76 20.8673 174.108 20.9295C175.225 20.8969 176.276 20.916 177.132 20.6755C177.286 20.4778 177.519 20.4195 177.606 20.2C177.678 19.8943 177.334 19.7999 177.334 19.7999C177.079 19.198 176.807 19.0339 175.971 19.0393C174.636 18.8992 174.37 18.1498 173.877 17.0664C173.393 16.6656 172.803 15.8041 172.109 14.4815C171.765 13.7775 171.462 13.2358 171.187 12.5257C171.351 11.7664 171.075 11.035 170.861 10.4656L170.861 10.4656Z" fill="#70C62A"/>
<path d="M152.411 12.029C152.37 12.643 152.148 13.3678 151.674 13.7002C151.361 13.9085 151.276 14.6417 151.418 15.8994C151.512 16.7399 151.613 17.6341 151.829 18.4772C152.057 19.1068 152.315 19.2695 153.074 19.5469C153.585 19.8516 153.677 20.5345 153.358 20.8392C154.226 20.8501 154.855 20.82 155.732 20.6829C156.223 20.3113 155.457 19.6429 155.227 19.3938L153.999 19.2549L153.21 18.5424C153.129 17.9195 153.087 17.2505 153.21 16.6494C153.472 15.8007 153.394 14.6229 153.825 13.818C154.145 13.3553 154.19 12.9953 154.273 12.456C153.614 12.4037 152.931 12.1839 152.411 12.029V12.029Z" fill="#BF6B03"/>
<path d="M150.146 11.3028C150.576 11.4466 151.045 11.5993 151.552 11.7615C152.256 11.9724 152.921 12.2043 153.646 12.366C154.688 12.5561 155.872 12.4618 156.756 12.366C157.436 12.291 157.942 12.2097 158.594 12.095C158.994 10.6335 159.088 9.39561 158.875 8.381C158.745 7.91329 158.46 7.84613 158.187 7.73153C157.528 7.59353 157.045 7.69243 156.556 8.09969C155.686 8.75833 154.765 9.82202 153.807 10.0207C153.246 10.0991 152.736 10.1273 152.162 10.2639C151.358 10.4519 150.686 10.7982 150.146 11.3028Z" fill="#118FBF"/>
<path d="M169.245 13.2032C168.254 12.8628 167.432 12.3127 166.779 11.5531C166.48 11.2054 166.299 10.9042 166.096 10.5143C165.718 10.8976 165.324 11.2083 164.928 11.4835C164.949 11.6993 165.009 11.8854 165.107 12.0429C165.641 12.6565 166.301 13.1464 166.783 13.7242C167.309 14.9148 168.026 15.9571 168.933 16.8508C169.587 17.4789 170.273 18.0039 170.911 18.5011C171.393 18.9182 172.334 19.4988 172.173 20.0297C172.228 20.4969 172.909 20.8092 173.46 20.9575C173.674 20.9506 173.891 20.9425 174.113 20.9329V20.9293C173.574 20.7569 172.841 20.1964 173.604 20.0751C174.381 19.9452 174.992 20.0261 175.8 19.8595C176.09 19.7993 176.168 19.7137 176.035 19.6025C175.738 19.3593 175.263 19.2655 174.611 19.3212C174.227 19.3348 173.699 19.4766 173.366 19.2691C172.987 19.0305 172.603 18.5869 172.212 17.9382C171.983 17.5608 171.653 16.9229 171.223 16.0244C170.707 15.1503 170.261 13.5755 169.245 13.2032V13.2032Z" fill="#549520"/>
<path d="M171.695 8.11767C171.324 8.02517 170.491 7.76981 169.198 7.22111C168.173 6.73693 167.211 6.57575 166.277 5.68864C165.646 4.97317 164.801 4.86782 163.741 5.37269C162.522 5.97826 161.695 6.59008 162.054 8.05138C162.313 8.97625 163.486 9.59724 163.075 10.5179C162.505 11.5064 161.802 12.1897 161.09 13.1651C160.096 14.5525 159.651 15.8366 159.754 17.0177C159.807 17.9726 159.401 19.5089 159.848 20.1967C160.31 20.6598 161.1 20.7707 161.655 20.6205C162.333 20.348 162.569 20.5679 162.829 20.9748C162.923 21.1299 162.926 21.2493 162.84 21.3328C163.42 21.2864 163.761 21.2201 163.864 21.1346C163.988 20.813 163.599 20.2784 163.376 20.075C162.64 20.0676 160.873 20.2912 160.97 19.3593C161.056 18.9169 161.154 18.6458 161.297 18.1989C161.325 17.7244 161.394 17.2018 161.504 16.6322C161.728 15.4952 162.05 14.6902 162.468 14.2175C162.905 13.7114 163.219 13.2715 163.622 12.7274C164.328 11.7885 165.343 11.4395 166.13 10.6453C167.187 9.44697 166.851 9.78737 168.257 9.51154C167.655 9.06001 166.744 9.02874 166.207 8.48912C165.362 7.62067 165.117 7.17917 165.47 7.16552C167.59 8.03325 169.295 9.29735 171.352 9.07626C171.964 9.22899 172.951 9.25208 174.312 9.14567L176.167 8.93706C174.672 8.28616 173.019 8.42282 171.695 8.11771V8.11767Z" fill="#118FBF"/>
<path d="M149.245 14.3906C149.11 14.7081 149.07 15.3902 149.126 16.4369C149.182 17.5416 149.181 18.203 149.122 18.4206C149.001 19.0559 148.996 19.578 149.122 20.1752L150.315 20.7309C151.357 20.8379 152.371 20.8383 153.355 20.8385C153.57 20.6463 153.662 20.4702 153.629 20.3107C153.464 19.7906 153.206 19.4638 152.626 19.3137C152.219 19.082 151.97 18.7856 151.879 18.4242C151.664 17.5811 151.51 16.7393 151.416 15.8988C151.273 14.6411 151.359 13.9079 151.672 13.6995C152.278 13.2596 152.356 12.6461 152.408 12.0284C151.641 11.7938 150.863 11.5438 150.14 11.3022C149.587 11.901 149.024 12.5214 148.446 13.0393C148.671 13.4525 149.246 13.8996 149.245 14.3906V14.3906Z" fill="#FF8F04"/>
<path d="M178.132 6.17885C177.757 6.21349 177.63 6.22722 177.364 6.19932C177.205 6.32368 176.976 6.31252 176.818 6.27594C176.591 6.22065 176.507 6.11576 176.397 5.95278L174.422 5.56376C173.082 5.27878 172.354 5.06583 172.237 4.92439C172.07 4.51889 171.176 3.72662 171.034 4.34557C170.724 4.65893 167.666 3.62304 166.166 3.10746C164.224 2.11205 162.1 2.41012 160.482 3.28118C158.439 4.23474 155.974 3.86918 154.056 3.94482C151.2 3.94703 150.177 5.6867 149.648 7.78336C149.213 9.04804 148.535 10.2373 147.614 11.3515C146.251 13.0005 144.291 14.6136 141.733 16.1907C141.32 16.4522 140.91 16.7827 140.66 17.1565C139.778 18.3069 139.865 19.3061 140.898 20.8531C141.254 20.8673 141.621 20.8013 141.652 20.4188L141.249 19.7759C141.298 19.7019 141.433 19.0002 141.354 18.7685C141.227 18.4483 142.731 17.0383 143.458 16.4132C144.969 15.1184 146.123 14.3207 146.92 14.0195C148.263 13.4216 149.192 12.3593 150.139 11.3027C150.139 11.3027 151.779 9.14264 153.719 7.64179C155.877 5.97207 157.792 6.56223 160.883 5.21738C162.312 4.6251 163.688 3.9952 165.065 4.16695C167.383 4.66065 167.554 5.77828 170.817 6.36975C172.931 6.7876 175.075 6.89117 176.775 8.24231C177.226 8.62215 177.708 8.90805 178.22 9.10026C178.453 9.1781 178.645 9.23173 178.855 9.2707C179.141 9.12266 179.318 8.98244 179.466 8.70429C179.817 8.64525 179.878 8.43734 180.002 8.14824C179.378 7.49243 178.756 6.8354 178.132 6.17885H178.132Z" fill="#A91600"/>
<path d="M176.503 6.08832C176.595 6.18541 176.701 6.24826 176.823 6.27594C176.977 6.31281 177.115 6.31084 177.236 6.26899L177.37 6.19932C177.316 6.10446 177.243 6.01629 177.152 5.93559C176.837 5.69695 176.673 5.71659 176.402 5.95278L176.503 6.08832Z" fill="white"/>
</g>
<defs>
<clipPath id="clip0">
<rect width="180" height="21.4035" fill="white"/>
</clipPath>
</defs>
</svg>
