<?xml version="1.0" encoding="utf-8"?>
<!-- Generator: Adobe Illustrator 23.0.2, SVG Export Plug-In . SVG Version: 6.00 Build 0)  -->
<svg version="1.1" id="Layer_1" xmlns="http://www.w3.org/2000/svg" xmlns:xlink="http://www.w3.org/1999/xlink" x="0px" y="0px"
	 width="20px" height="35px" viewBox="0 0 20 35" style="enable-background:new 0 0 20 35;" xml:space="preserve">
<style type="text/css">
	.st0{fill:none;stroke:#A8B1B0;}
	.st1{fill:#C4C4C4;}
</style>
<path class="st0" d="M10,0.5L10,0.5c5.2,0,9.5,4.3,9.5,9.5v15c0,5.2-4.3,9.5-9.5,9.5l0,0c-5.2,0-9.5-4.3-9.5-9.5V10
	C0.5,4.8,4.8,0.5,10,0.5z"/>
<path class="st1" d="M10,10L10,10c1.1,0,2,0.9,2,2v4c0,1.1-0.9,2-2,2l0,0c-1.1,0-2-0.9-2-2v-4C8,10.9,8.9,10,10,10z"/>
</svg>
